<?xml version="1.0" encoding="UTF-8"?>
<svg id="Layer_2" data-name="Layer 2" xmlns="http://www.w3.org/2000/svg" viewBox="0 0 214.72 74.76">
  <defs>
    <style>
      .cls-1 {
        fill: #0e1f3c;
      }

      .cls-2 {
        fill: #f16d22;
      }
    </style>
  </defs>
  <g id="Layer_1-2" data-name="Layer 1">
    <g>
      <g>
        <path class="cls-1" d="M114.28,44.23h-9.04l-2.51-4.61h-15.21l-2.51,4.61h-9.04l14.56-26.86h9.18l14.56,26.86ZM95.14,25.57l-4.36,7.99h8.68l-4.32-7.99Z"/>
        <path class="cls-1" d="M114.06,28.96c1.21-1.63,2.87-2.91,4.97-3.83,2.11-.92,4.43-1.38,6.97-1.38s4.56.37,6.41,1.11c1.85.74,3.35,1.77,4.48,3.1,1.14,1.33,1.89,2.87,2.25,4.61h-8.35c-.27-1.09-.82-1.96-1.67-2.61-.85-.65-1.88-.98-3.09-.98-1.57,0-2.86.5-3.85,1.51-.99,1-1.49,2.33-1.49,3.98s.48,2.91,1.45,3.94c.97,1.03,2.24,1.54,3.81,1.54,1.23,0,2.27-.33,3.12-.98.85-.65,1.4-1.51,1.67-2.58h8.35c-.27,1.65-.99,3.13-2.18,4.47-1.19,1.33-2.73,2.38-4.63,3.16-1.9.77-4,1.16-6.3,1.16-2.52,0-4.83-.47-6.93-1.4-2.11-.93-3.77-2.21-4.99-3.85-1.22-1.63-1.83-3.45-1.83-5.46s.61-3.87,1.82-5.5Z"/>
        <path class="cls-1" d="M161.39,24.99c2.11.92,3.75,2.2,4.94,3.83,1.19,1.63,1.78,3.47,1.78,5.5s-.6,3.83-1.8,5.46c-1.2,1.63-2.84,2.91-4.94,3.83-2.09.92-4.45,1.38-7.06,1.38s-4.88-.47-7.08-1.4c-2.2-.93-3.96-2.21-5.28-3.85-1.32-1.63-1.98-3.44-1.98-5.43s.66-3.83,1.98-5.46c1.32-1.63,3.07-2.92,5.26-3.85,2.19-.93,4.56-1.4,7.1-1.4s4.97.46,7.08,1.38ZM157.02,39.18c.84-.41,1.51-1.03,2.01-1.87.51-.83.76-1.83.76-3s-.26-2.16-.76-2.99c-.51-.84-1.18-1.46-2.01-1.87-.84-.41-1.74-.62-2.7-.62s-1.87.21-2.78.64c-.91.42-1.65,1.05-2.23,1.87-.58.82-.87,1.82-.87,2.98s.29,2.15.87,2.98c.58.82,1.32,1.45,2.23,1.87.91.42,1.83.64,2.78.64s1.87-.21,2.7-.62Z"/>
        <path class="cls-1" d="M177.73,27.89c1.94-2.13,5-3.41,9.18-3.85v6.32h-4.83c-1.5,0-2.59.56-3.27,1.69-.68,1.13-1.02,2.6-1.02,4.41v7.77h-8.35v-19.78h7.59l.69,3.45Z"/>
        <path class="cls-1" d="M212.27,26.66c1.63,1.91,2.45,5.05,2.45,9.4v8.17h-8.35v-8.06c0-1.52-.08-2.77-.25-3.74-.17-.97-.58-1.78-1.23-2.43-.65-.65-1.67-.98-3.05-.98-1.45,0-2.53.31-3.23.93s-1.15,1.41-1.34,2.38-.29,2.24-.29,3.81v8.1h-8.35v-19.78h8.35v2.47c1.84-2.08,4.63-3.12,8.39-3.12,2.98,0,5.28.96,6.92,2.87Z"/>
        <path class="cls-1" d="M88.87,59.68c.85.11,1.55.37,2.11.78s.84,1.02.84,1.84c0,1.46-.63,2.45-1.89,2.95-1.26.51-2.69.76-4.27.76-.86,0-1.77-.09-2.71-.28-.95-.19-1.8-.57-2.54-1.15-.75-.58-1.12-1.39-1.12-2.45l1.99-.06c0,.68.27,1.18.81,1.51.54.33,1.12.53,1.76.61.64.08,1.32.12,2.03.12,1.1,0,2.05-.15,2.84-.45.79-.3,1.19-.8,1.2-1.51h0c0-.49-.39-.79-1.16-.92s-1.72-.2-2.84-.2h-.38c-1.41,0-2.54-.07-3.39-.19-.85-.12-1.53-.39-2.06-.81s-.79-1.08-.79-1.97c0-1.5.67-2.48,2-2.95,1.33-.46,2.79-.7,4.38-.7.82,0,1.69.09,2.61.28.92.19,1.74.57,2.47,1.15s1.09,1.39,1.09,2.45h-1.99c0-.69-.4-1.21-1.2-1.56-.8-.35-1.77-.55-2.92-.6-1.26,0-2.33.15-3.2.46s-1.31.78-1.31,1.43c0,.54.41.89,1.22,1.05.81.16,1.79.24,2.92.24h.39c1.25,0,2.3.06,3.14.17Z"/>
        <path class="cls-1" d="M103.58,63.07c-.48.81-1.17,1.45-2.06,1.92-.89.46-1.92.7-3.11.7h-5.14v-10.74h5.12c1.18,0,2.22.23,3.11.7s1.59,1.1,2.07,1.92.73,1.74.73,2.77-.24,1.93-.73,2.74ZM98.67,63.91c.73,0,1.37-.14,1.94-.41.57-.28,1.01-.68,1.34-1.22.32-.54.49-1.19.49-1.95,0-.64-.16-1.23-.49-1.79-.32-.55-.77-.99-1.35-1.32-.58-.33-1.22-.49-1.92-.49h-3.51v7.19h3.51Z"/>
        <path class="cls-1" d="M107.64,54.94v9.1h7.69v1.64h-9.58v-10.74h1.89Z"/>
        <path class="cls-1" d="M116.42,57.42c.58-.86,1.36-1.54,2.36-2.02s2.11-.73,3.32-.73c1.46,0,2.74.36,3.85,1.09,1.11.73,1.91,1.76,2.4,3.09l-1.97.03c-.2-.54-.55-1.01-1.03-1.39s-1.02-.68-1.6-.88-1.13-.3-1.63-.3c-.75,0-1.49.16-2.21.47-.72.31-1.31.78-1.77,1.39s-.69,1.33-.69,2.16.21,1.58.64,2.18.99,1.05,1.71,1.36c.71.31,1.49.46,2.33.46.49,0,1.01-.09,1.55-.28s1.05-.47,1.52-.85c.47-.38.85-.84,1.13-1.38h2.05c-.54,1.35-1.36,2.39-2.45,3.09s-2.36,1.06-3.82,1.06c-1.21,0-2.32-.25-3.32-.74-1-.49-1.79-1.17-2.37-2.03-.58-.86-.86-1.82-.86-2.87s.29-2.04.86-2.9Z"/>
        <path class="cls-1" d="M147.49,65.68h-1.19l-.29-1.57c-.59.59-1.31,1.05-2.16,1.37s-1.76.49-2.73.49c-1.23,0-2.34-.25-3.32-.74s-1.76-1.17-2.33-2.02c-.57-.86-.85-1.82-.85-2.88s.29-2.04.87-2.9c.58-.86,1.37-1.53,2.36-2.01.99-.48,2.08-.73,3.27-.73.85,0,1.7.15,2.54.44.84.29,1.59.74,2.25,1.34.66.6,1.12,1.34,1.39,2.24h-2c-.23-.52-.58-.96-1.04-1.31-.46-.35-.97-.61-1.53-.78-.56-.17-1.09-.25-1.59-.25-.88,0-1.67.16-2.37.49-.7.32-1.25.79-1.66,1.39-.4.6-.6,1.3-.6,2.1,0,.84.21,1.57.63,2.17.42.61.99,1.06,1.69,1.37.71.31,1.48.46,2.31.46s1.69-.2,2.47-.6c.77-.4,1.36-1,1.76-1.81h-4.06v-1.48h6.14v1.04l.06,4.2Z"/>
        <path class="cls-1" d="M155.71,57.77h1.82v7.91h-1.82v-1.09c-.79.9-1.98,1.35-3.57,1.35-1.07,0-1.9-.37-2.51-1.12s-.91-2.01-.91-3.79v-3.27h1.81v3.22c0,1,.16,1.83.49,2.5.33.67,1.01,1.01,2.05,1.01s1.77-.34,2.11-1.02c.34-.68.51-1.55.51-2.59v-3.12Z"/>
        <path class="cls-1" d="M160.64,56.48h-1.81v-1.54h1.81v1.54ZM160.64,56.9h-1.81v8.78h1.81v-8.78Z"/>
        <path class="cls-1" d="M169.41,54.97h1.81v10.67h-1.51l-.19-.91c-.82.73-2.14,1.09-3.95,1.09-.74,0-1.41-.19-1.99-.56-.59-.37-1.04-.88-1.37-1.53-.32-.65-.49-1.37-.49-2.18h0v-.04c0-.7.17-1.35.47-1.97s.75-1.12,1.33-1.5,1.26-.57,2.05-.57c1.67,0,2.95.42,3.83,1.25v-3.74ZM168.06,64.14c.43-.28.76-.63,1-1.07.24-.44.36-.9.36-1.39,0-.53-.12-1.02-.35-1.47s-.56-.8-.99-1.07c-.43-.27-.92-.4-1.47-.4-.63,0-1.17.15-1.61.44-.45.29-.78.65-1,1.08-.22.43-.34.85-.35,1.27,0,.48.12.96.35,1.42.22.46.55.84.99,1.15s.98.46,1.62.46c.55,0,1.04-.14,1.47-.41Z"/>
        <path class="cls-1" d="M182.37,61.84h-8.24c.03.49.17.96.42,1.39s.62.78,1.12,1.05c.49.27,1.09.41,1.8.41.61,0,1.15-.11,1.62-.33.47-.22.83-.49,1.09-.81.26-.32.39-.64.39-.94h1.81c0,.5-.19,1.02-.58,1.54-.39.52-.95.96-1.7,1.31s-1.63.52-2.66.52c-.92,0-1.77-.18-2.55-.54-.78-.36-1.41-.87-1.87-1.52s-.7-1.4-.7-2.23.23-1.6.68-2.26,1.06-1.16,1.84-1.51,1.65-.53,2.61-.53,1.84.17,2.58.52c.74.35,1.32.84,1.73,1.47.41.63.62,1.38.63,2.23v.23ZM175.45,59.24c-.51.37-.88.85-1.1,1.45h6.1c-.17-.6-.49-1.08-.97-1.45-.48-.37-1.15-.55-2.01-.55s-1.51.18-2.02.55Z"/>
      </g>
      <g>
        <rect class="cls-2" x="6.1" y="31.91" width="12.96" height="10.26" transform="translate(-9.16 4.52) rotate(-15)"/>
        <rect class="cls-2" x="8.61" y="42.62" width="12.96" height="7.57" transform="translate(-11.5 5.49) rotate(-15)"/>
        <polygon class="cls-2" points="42.66 34.29 20.93 40.11 18.27 30.2 25.2 28.34 26.43 32.92 41.23 28.96 42.66 34.29"/>
        <polygon class="cls-2" points="38.42 44.08 23.09 48.18 21.13 40.87 42.86 35.05 44.82 42.36 39.18 43.87 38.92 42.9 40.29 42.53 39.35 39.02 35.84 39.96 36.78 43.47 38.16 43.11 38.42 44.08"/>
        <polygon class="cls-2" points="54.87 20.39 62.27 48.01 59.5 48.75 60.98 54.27 58.21 55.01 58.95 57.77 57.3 58.21 56.42 54.94 55.05 55.31 52.17 44.56 53.54 44.19 52.6 40.68 49.09 41.62 50.03 45.13 51.41 44.76 54.29 55.51 52.91 55.88 53.85 59.39 56.24 58.75 56.92 61.28 54.14 62.02 54.88 64.78 46.57 67.01 47.31 69.77 44.54 70.51 45.28 73.27 39.74 74.76 39 72 36.23 72.74 35.49 69.98 27.17 72.21 26.43 69.45 23.66 70.19 22.92 67.43 20.15 68.17 19.41 65.41 16.64 66.15 15.16 60.63 12.39 61.37 10.01 52.5 22.53 49.15 23.31 52.06 20.88 52.71 20.51 51.34 17 52.28 17.94 55.79 21.45 54.85 21.08 53.47 23.52 52.82 26.25 63.02 24.88 63.39 25.82 66.9 29.33 65.96 28.39 62.45 27.01 62.82 24.28 52.62 29.12 51.32 30.22 55.43 28.85 55.8 29.79 59.31 33.3 58.37 32.36 54.86 30.98 55.23 29.68 50.35 24.07 51.86 23.29 48.94 38.62 44.83 39.73 48.99 46.14 47.27 48.74 56.99 47.37 57.36 48.31 60.87 51.82 59.93 50.88 56.42 49.5 56.79 46.69 46.31 40.29 48.02 39.38 44.63 45.78 42.92 43.62 34.84 53.56 32.18 53.93 33.56 57.44 32.62 56.5 29.11 52.98 30.05 53.35 31.42 43.42 34.08 41.79 28 26.98 31.96 25.96 28.14 54.87 20.39"/>
        <polygon class="cls-2" points="55.42 11.37 56.9 16.89 40.02 21.41 39.65 20.01 41.03 19.65 40.08 16.14 36.57 17.08 37.51 20.59 38.89 20.22 39.26 21.62 25.22 25.38 23.69 19.67 25.07 19.3 24.13 15.79 20.62 16.73 21.56 20.25 22.93 19.88 24.46 25.59 18.91 27.07 18.18 24.37 14.67 25.31 15.4 28.01 1.48 31.74 0 26.22 2.77 25.48 2.03 22.72 4.8 21.97 4.06 19.21 26.23 13.27 24.75 7.75 27.52 7.01 29 12.53 48.4 7.33 49.14 10.09 51.91 9.35 52.65 12.11 55.42 11.37"/>
        <rect class="cls-2" x="29.14" y=".32" width="2.87" height="2.86" transform="translate(.59 7.97) rotate(-15)"/>
        <rect class="cls-2" x="27.11" y="3.83" width="2.87" height="2.86" transform="translate(-.39 7.57) rotate(-15)"/>
      </g>
    </g>
  </g>
</svg>